<svg width="43" height="34" viewBox="0 0 43 34" fill="none" xmlns="http://www.w3.org/2000/svg">
<path d="M39.6667 4.25H35.4167V2.83333C35.4167 2.08189 35.1182 1.36122 34.5868 0.829864C34.0554 0.298511 33.3348 0 32.5833 0H9.91667C9.16522 0 8.44455 0.298511 7.9132 0.829864C7.38184 1.36122 7.08333 2.08189 7.08333 2.83333V4.25H2.83333C2.08189 4.25 1.36122 4.54851 0.829864 5.07986C0.298511 5.61122 0 6.33189 0 7.08333V9.91667C0 11.7953 0.746278 13.597 2.07466 14.9253C2.73241 15.5831 3.51327 16.1048 4.37266 16.4608C5.23205 16.8168 6.15314 17 7.08333 17H7.72969C8.56419 19.6446 10.1553 21.9867 12.3064 23.7368C14.4575 25.487 17.0743 26.5685 19.8333 26.8476V31.1667H15.5833C15.2076 31.1667 14.8473 31.3159 14.5816 31.5816C14.3159 31.8473 14.1667 32.2076 14.1667 32.5833C14.1667 32.9591 14.3159 33.3194 14.5816 33.5851C14.8473 33.8507 15.2076 34 15.5833 34H26.9167C27.2924 34 27.6527 33.8507 27.9184 33.5851C28.1841 33.3194 28.3333 32.9591 28.3333 32.5833C28.3333 32.2076 28.1841 31.8473 27.9184 31.5816C27.6527 31.3159 27.2924 31.1667 26.9167 31.1667H22.6667V26.8423C28.3227 26.2703 33.0154 22.3019 34.7225 17H35.4167C37.2953 17 39.097 16.2537 40.4253 14.9253C41.7537 13.597 42.5 11.7953 42.5 9.91667V7.08333C42.5 6.33189 42.2015 5.61122 41.6701 5.07986C41.1388 4.54851 40.4181 4.25 39.6667 4.25ZM7.08333 14.1667C5.95616 14.1667 4.87516 13.7189 4.07813 12.9219C3.2811 12.1248 2.83333 11.0438 2.83333 9.91667V7.08333H7.08333V12.75C7.08333 13.2222 7.10635 13.6944 7.1524 14.1667H7.08333ZM39.6667 9.91667C39.6667 11.0438 39.2189 12.1248 38.4219 12.9219C37.6248 13.7189 36.5438 14.1667 35.4167 14.1667H35.3281C35.3863 13.6433 35.4158 13.1172 35.4167 12.5906V7.08333H39.6667V9.91667Z" fill="url(#paint0_linear_506_980)"/>
<defs>
<linearGradient id="paint0_linear_506_980" x1="0" y1="0" x2="28.3277" y2="46.2981" gradientUnits="userSpaceOnUse">
<stop stop-color="#B97140"/>
<stop offset="0.479167" stop-color="#DB8E58"/>
<stop offset="0.479267" stop-color="#EDA169"/>
<stop offset="1" stop-color="#B46C3C"/>
</linearGradient>
</defs>
</svg>
